<mxfile host="app.diagrams.net" agent="Mozilla/5.0 (Windows NT 10.0; Win64; x64) AppleWebKit/537.36 (KHTML, like Gecko) Chrome/133.0.0.0 Safari/537.36" version="26.0.16">
  <diagram name="PÃ¡gina-1" id="YK3LE2lmsFPkVxMwnubo">
    <mxGraphModel dx="1318" dy="1680" grid="1" gridSize="10" guides="1" tooltips="1" connect="1" arrows="1" fold="1" page="1" pageScale="1" pageWidth="827" pageHeight="1169" math="0" shadow="0">
      <root>
        <mxCell id="0" />
        <mxCell id="1" parent="0" />
        <mxCell id="Vnj8ahKII1eqrUuesVkK-2" value="" style="rounded=0;whiteSpace=wrap;html=1;" vertex="1" parent="1">
          <mxGeometry x="40" y="40" width="330" height="180" as="geometry" />
        </mxCell>
        <mxCell id="Vnj8ahKII1eqrUuesVkK-3" value="" style="ellipse;shape=doubleEllipse;whiteSpace=wrap;html=1;aspect=fixed;" vertex="1" parent="1">
          <mxGeometry x="260" y="60" width="80" height="80" as="geometry" />
        </mxCell>
        <mxCell id="Vnj8ahKII1eqrUuesVkK-4" value="&lt;font style=&quot;font-size: 12px;&quot;&gt;Introduce tu nombre de usuario&lt;/font&gt;" style="text;strokeColor=none;fillColor=none;html=1;fontSize=24;fontStyle=1;verticalAlign=middle;align=center;" vertex="1" parent="1">
          <mxGeometry x="10" y="80" width="270" as="geometry" />
        </mxCell>
        <mxCell id="Vnj8ahKII1eqrUuesVkK-5" value="Nombre:" style="text;html=1;align=center;verticalAlign=middle;whiteSpace=wrap;rounded=0;" vertex="1" parent="1">
          <mxGeometry x="70" y="150" width="60" height="30" as="geometry" />
        </mxCell>
        <mxCell id="Vnj8ahKII1eqrUuesVkK-6" value="" style="rounded=0;whiteSpace=wrap;html=1;" vertex="1" parent="1">
          <mxGeometry x="140" y="150" width="160" height="30" as="geometry" />
        </mxCell>
        <mxCell id="Vnj8ahKII1eqrUuesVkK-7" value="Aceptar" style="rounded=0;whiteSpace=wrap;html=1;" vertex="1" parent="1">
          <mxGeometry x="185" y="190" width="70" height="20" as="geometry" />
        </mxCell>
        <mxCell id="Vnj8ahKII1eqrUuesVkK-8" value="Cancelar" style="rounded=0;whiteSpace=wrap;html=1;" vertex="1" parent="1">
          <mxGeometry x="260" y="190" width="70" height="20" as="geometry" />
        </mxCell>
        <mxCell id="Vnj8ahKII1eqrUuesVkK-9" value="" style="rounded=0;whiteSpace=wrap;html=1;" vertex="1" parent="1">
          <mxGeometry x="40" y="330" width="420" height="340" as="geometry" />
        </mxCell>
        <mxCell id="Vnj8ahKII1eqrUuesVkK-10" value="" style="endArrow=classic;html=1;rounded=0;exitX=0.533;exitY=0.983;exitDx=0;exitDy=0;exitPerimeter=0;" edge="1" parent="1">
          <mxGeometry width="50" height="50" relative="1" as="geometry">
            <mxPoint x="219.5000000000001" y="210.00000000000006" as="sourcePoint" />
            <mxPoint x="219.61" y="313.06" as="targetPoint" />
          </mxGeometry>
        </mxCell>
        <mxCell id="Vnj8ahKII1eqrUuesVkK-11" value="" style="rounded=0;whiteSpace=wrap;html=1;" vertex="1" parent="1">
          <mxGeometry x="360" y="370" width="80" height="240" as="geometry" />
        </mxCell>
        <mxCell id="Vnj8ahKII1eqrUuesVkK-12" value="" style="rounded=0;whiteSpace=wrap;html=1;" vertex="1" parent="1">
          <mxGeometry x="60" y="370" width="270" height="240" as="geometry" />
        </mxCell>
        <mxCell id="Vnj8ahKII1eqrUuesVkK-13" value="" style="rounded=0;whiteSpace=wrap;html=1;" vertex="1" parent="1">
          <mxGeometry x="60" y="630" width="270" height="20" as="geometry" />
        </mxCell>
        <mxCell id="Vnj8ahKII1eqrUuesVkK-14" value="Enviar" style="rounded=1;whiteSpace=wrap;html=1;" vertex="1" parent="1">
          <mxGeometry x="350" y="630" width="40" height="20" as="geometry" />
        </mxCell>
        <mxCell id="Vnj8ahKII1eqrUuesVkK-15" value="Zumbido" style="rounded=1;whiteSpace=wrap;html=1;" vertex="1" parent="1">
          <mxGeometry x="400" y="630" width="50" height="20" as="geometry" />
        </mxCell>
        <mxCell id="Vnj8ahKII1eqrUuesVkK-17" value="" style="shape=table;startSize=0;container=1;collapsible=0;childLayout=tableLayout;fontSize=11;fillColor=none;strokeColor=none;" vertex="1" parent="1">
          <mxGeometry x="360" y="370" width="80" height="170" as="geometry" />
        </mxCell>
        <mxCell id="Vnj8ahKII1eqrUuesVkK-18" value="" style="shape=tableRow;horizontal=0;startSize=0;swimlaneHead=0;swimlaneBody=0;strokeColor=inherit;top=0;left=0;bottom=0;right=0;collapsible=0;dropTarget=0;fillColor=none;points=[[0,0.5],[1,0.5]];portConstraint=eastwest;fontSize=16;" vertex="1" parent="Vnj8ahKII1eqrUuesVkK-17">
          <mxGeometry width="80" height="43" as="geometry" />
        </mxCell>
        <mxCell id="Vnj8ahKII1eqrUuesVkK-19" value="Usuario 1" style="shape=partialRectangle;html=1;whiteSpace=wrap;connectable=0;strokeColor=inherit;overflow=hidden;fillColor=none;top=0;left=0;bottom=0;right=0;pointerEvents=1;fontSize=12;align=left;spacingLeft=5;" vertex="1" parent="Vnj8ahKII1eqrUuesVkK-18">
          <mxGeometry width="80" height="43" as="geometry">
            <mxRectangle width="80" height="43" as="alternateBounds" />
          </mxGeometry>
        </mxCell>
        <mxCell id="Vnj8ahKII1eqrUuesVkK-20" value="" style="shape=tableRow;horizontal=0;startSize=0;swimlaneHead=0;swimlaneBody=0;strokeColor=inherit;top=0;left=0;bottom=0;right=0;collapsible=0;dropTarget=0;fillColor=none;points=[[0,0.5],[1,0.5]];portConstraint=eastwest;fontSize=16;" vertex="1" parent="Vnj8ahKII1eqrUuesVkK-17">
          <mxGeometry y="43" width="80" height="42" as="geometry" />
        </mxCell>
        <mxCell id="Vnj8ahKII1eqrUuesVkK-21" value="Usuario 2" style="shape=partialRectangle;html=1;whiteSpace=wrap;connectable=0;strokeColor=inherit;overflow=hidden;fillColor=none;top=0;left=0;bottom=0;right=0;pointerEvents=1;fontSize=12;align=left;spacingLeft=5;" vertex="1" parent="Vnj8ahKII1eqrUuesVkK-20">
          <mxGeometry width="80" height="42" as="geometry">
            <mxRectangle width="80" height="42" as="alternateBounds" />
          </mxGeometry>
        </mxCell>
        <mxCell id="Vnj8ahKII1eqrUuesVkK-22" value="" style="shape=tableRow;horizontal=0;startSize=0;swimlaneHead=0;swimlaneBody=0;strokeColor=inherit;top=0;left=0;bottom=0;right=0;collapsible=0;dropTarget=0;fillColor=none;points=[[0,0.5],[1,0.5]];portConstraint=eastwest;fontSize=16;" vertex="1" parent="Vnj8ahKII1eqrUuesVkK-17">
          <mxGeometry y="85" width="80" height="43" as="geometry" />
        </mxCell>
        <mxCell id="Vnj8ahKII1eqrUuesVkK-23" value="Usuario 3" style="shape=partialRectangle;html=1;whiteSpace=wrap;connectable=0;strokeColor=inherit;overflow=hidden;fillColor=none;top=0;left=0;bottom=0;right=0;pointerEvents=1;fontSize=12;align=left;spacingLeft=5;" vertex="1" parent="Vnj8ahKII1eqrUuesVkK-22">
          <mxGeometry width="80" height="43" as="geometry">
            <mxRectangle width="80" height="43" as="alternateBounds" />
          </mxGeometry>
        </mxCell>
        <mxCell id="Vnj8ahKII1eqrUuesVkK-24" style="shape=tableRow;horizontal=0;startSize=0;swimlaneHead=0;swimlaneBody=0;strokeColor=inherit;top=0;left=0;bottom=0;right=0;collapsible=0;dropTarget=0;fillColor=none;points=[[0,0.5],[1,0.5]];portConstraint=eastwest;fontSize=16;" vertex="1" parent="Vnj8ahKII1eqrUuesVkK-17">
          <mxGeometry y="128" width="80" height="42" as="geometry" />
        </mxCell>
        <mxCell id="Vnj8ahKII1eqrUuesVkK-25" value="Usuario 4" style="shape=partialRectangle;html=1;whiteSpace=wrap;connectable=0;strokeColor=inherit;overflow=hidden;fillColor=none;top=0;left=0;bottom=0;right=0;pointerEvents=1;fontSize=12;align=left;spacingLeft=5;" vertex="1" parent="Vnj8ahKII1eqrUuesVkK-24">
          <mxGeometry width="80" height="42" as="geometry">
            <mxRectangle width="80" height="42" as="alternateBounds" />
          </mxGeometry>
        </mxCell>
        <mxCell id="Vnj8ahKII1eqrUuesVkK-26" value="Bienvenido, Usuario 0!" style="text;html=1;align=center;verticalAlign=middle;whiteSpace=wrap;rounded=0;" vertex="1" parent="1">
          <mxGeometry x="50" y="380" width="170" height="20" as="geometry" />
        </mxCell>
        <mxCell id="Vnj8ahKII1eqrUuesVkK-27" value="" style="ellipse;whiteSpace=wrap;html=1;aspect=fixed;fillColor=light-dark(#77FF28,var(--ge-dark-color, #121212));" vertex="1" parent="1">
          <mxGeometry x="420" y="385" width="10" height="10" as="geometry" />
        </mxCell>
        <mxCell id="Vnj8ahKII1eqrUuesVkK-32" value="" style="ellipse;whiteSpace=wrap;html=1;aspect=fixed;fillColor=light-dark(#77FF28,#000000);" vertex="1" parent="1">
          <mxGeometry x="420" y="425" width="10" height="10" as="geometry" />
        </mxCell>
        <mxCell id="Vnj8ahKII1eqrUuesVkK-33" value="" style="ellipse;whiteSpace=wrap;html=1;aspect=fixed;fillColor=light-dark(#77FF28,#000000);" vertex="1" parent="1">
          <mxGeometry x="420" y="470" width="10" height="10" as="geometry" />
        </mxCell>
        <mxCell id="Vnj8ahKII1eqrUuesVkK-34" value="" style="ellipse;whiteSpace=wrap;html=1;aspect=fixed;fillColor=light-dark(#77FF28,#000000);" vertex="1" parent="1">
          <mxGeometry x="420" y="510" width="10" height="10" as="geometry" />
        </mxCell>
        <mxCell id="Vnj8ahKII1eqrUuesVkK-35" value="Usuario 0" style="text;html=1;align=center;verticalAlign=middle;whiteSpace=wrap;rounded=0;" vertex="1" parent="1">
          <mxGeometry x="140" y="150" width="60" height="30" as="geometry" />
        </mxCell>
        <mxCell id="Vnj8ahKII1eqrUuesVkK-36" value="Hola a todos los usuarios" style="text;html=1;align=center;verticalAlign=middle;whiteSpace=wrap;rounded=0;" vertex="1" parent="1">
          <mxGeometry x="50" y="635" width="170" height="10" as="geometry" />
        </mxCell>
        <mxCell id="Vnj8ahKII1eqrUuesVkK-37" value="" style="rounded=0;whiteSpace=wrap;html=1;" vertex="1" parent="1">
          <mxGeometry x="40" y="860" width="420" height="340" as="geometry" />
        </mxCell>
        <mxCell id="Vnj8ahKII1eqrUuesVkK-38" value="" style="rounded=0;whiteSpace=wrap;html=1;" vertex="1" parent="1">
          <mxGeometry x="360" y="900" width="80" height="240" as="geometry" />
        </mxCell>
        <mxCell id="Vnj8ahKII1eqrUuesVkK-39" value="" style="rounded=0;whiteSpace=wrap;html=1;" vertex="1" parent="1">
          <mxGeometry x="60" y="900" width="270" height="240" as="geometry" />
        </mxCell>
        <mxCell id="Vnj8ahKII1eqrUuesVkK-40" value="" style="rounded=0;whiteSpace=wrap;html=1;" vertex="1" parent="1">
          <mxGeometry x="60" y="1160" width="270" height="20" as="geometry" />
        </mxCell>
        <mxCell id="Vnj8ahKII1eqrUuesVkK-41" value="Enviar" style="rounded=1;whiteSpace=wrap;html=1;" vertex="1" parent="1">
          <mxGeometry x="350" y="1160" width="40" height="20" as="geometry" />
        </mxCell>
        <mxCell id="Vnj8ahKII1eqrUuesVkK-42" value="Zumbido" style="rounded=1;whiteSpace=wrap;html=1;" vertex="1" parent="1">
          <mxGeometry x="400" y="1160" width="50" height="20" as="geometry" />
        </mxCell>
        <mxCell id="Vnj8ahKII1eqrUuesVkK-43" value="" style="shape=table;startSize=0;container=1;collapsible=0;childLayout=tableLayout;fontSize=11;fillColor=none;strokeColor=none;" vertex="1" parent="1">
          <mxGeometry x="360" y="900" width="80" height="170" as="geometry" />
        </mxCell>
        <mxCell id="Vnj8ahKII1eqrUuesVkK-44" value="" style="shape=tableRow;horizontal=0;startSize=0;swimlaneHead=0;swimlaneBody=0;strokeColor=inherit;top=0;left=0;bottom=0;right=0;collapsible=0;dropTarget=0;fillColor=none;points=[[0,0.5],[1,0.5]];portConstraint=eastwest;fontSize=16;" vertex="1" parent="Vnj8ahKII1eqrUuesVkK-43">
          <mxGeometry width="80" height="43" as="geometry" />
        </mxCell>
        <mxCell id="Vnj8ahKII1eqrUuesVkK-45" value="Usuario 1" style="shape=partialRectangle;html=1;whiteSpace=wrap;connectable=0;strokeColor=inherit;overflow=hidden;fillColor=none;top=0;left=0;bottom=0;right=0;pointerEvents=1;fontSize=12;align=left;spacingLeft=5;" vertex="1" parent="Vnj8ahKII1eqrUuesVkK-44">
          <mxGeometry width="80" height="43" as="geometry">
            <mxRectangle width="80" height="43" as="alternateBounds" />
          </mxGeometry>
        </mxCell>
        <mxCell id="Vnj8ahKII1eqrUuesVkK-46" value="" style="shape=tableRow;horizontal=0;startSize=0;swimlaneHead=0;swimlaneBody=0;strokeColor=inherit;top=0;left=0;bottom=0;right=0;collapsible=0;dropTarget=0;fillColor=none;points=[[0,0.5],[1,0.5]];portConstraint=eastwest;fontSize=16;" vertex="1" parent="Vnj8ahKII1eqrUuesVkK-43">
          <mxGeometry y="43" width="80" height="42" as="geometry" />
        </mxCell>
        <mxCell id="Vnj8ahKII1eqrUuesVkK-47" value="Usuario 2" style="shape=partialRectangle;html=1;whiteSpace=wrap;connectable=0;strokeColor=inherit;overflow=hidden;fillColor=none;top=0;left=0;bottom=0;right=0;pointerEvents=1;fontSize=12;align=left;spacingLeft=5;" vertex="1" parent="Vnj8ahKII1eqrUuesVkK-46">
          <mxGeometry width="80" height="42" as="geometry">
            <mxRectangle width="80" height="42" as="alternateBounds" />
          </mxGeometry>
        </mxCell>
        <mxCell id="Vnj8ahKII1eqrUuesVkK-48" value="" style="shape=tableRow;horizontal=0;startSize=0;swimlaneHead=0;swimlaneBody=0;strokeColor=inherit;top=0;left=0;bottom=0;right=0;collapsible=0;dropTarget=0;fillColor=none;points=[[0,0.5],[1,0.5]];portConstraint=eastwest;fontSize=16;" vertex="1" parent="Vnj8ahKII1eqrUuesVkK-43">
          <mxGeometry y="85" width="80" height="43" as="geometry" />
        </mxCell>
        <mxCell id="Vnj8ahKII1eqrUuesVkK-49" value="Usuario 3" style="shape=partialRectangle;html=1;whiteSpace=wrap;connectable=0;strokeColor=inherit;overflow=hidden;fillColor=none;top=0;left=0;bottom=0;right=0;pointerEvents=1;fontSize=12;align=left;spacingLeft=5;" vertex="1" parent="Vnj8ahKII1eqrUuesVkK-48">
          <mxGeometry width="80" height="43" as="geometry">
            <mxRectangle width="80" height="43" as="alternateBounds" />
          </mxGeometry>
        </mxCell>
        <mxCell id="Vnj8ahKII1eqrUuesVkK-50" style="shape=tableRow;horizontal=0;startSize=0;swimlaneHead=0;swimlaneBody=0;strokeColor=inherit;top=0;left=0;bottom=0;right=0;collapsible=0;dropTarget=0;fillColor=none;points=[[0,0.5],[1,0.5]];portConstraint=eastwest;fontSize=16;" vertex="1" parent="Vnj8ahKII1eqrUuesVkK-43">
          <mxGeometry y="128" width="80" height="42" as="geometry" />
        </mxCell>
        <mxCell id="Vnj8ahKII1eqrUuesVkK-51" value="Usuario 4" style="shape=partialRectangle;html=1;whiteSpace=wrap;connectable=0;strokeColor=inherit;overflow=hidden;fillColor=none;top=0;left=0;bottom=0;right=0;pointerEvents=1;fontSize=12;align=left;spacingLeft=5;" vertex="1" parent="Vnj8ahKII1eqrUuesVkK-50">
          <mxGeometry width="80" height="42" as="geometry">
            <mxRectangle width="80" height="42" as="alternateBounds" />
          </mxGeometry>
        </mxCell>
        <mxCell id="Vnj8ahKII1eqrUuesVkK-52" value="Bienvenido, Usuario 0!" style="text;html=1;align=center;verticalAlign=middle;whiteSpace=wrap;rounded=0;" vertex="1" parent="1">
          <mxGeometry x="50" y="910" width="170" height="20" as="geometry" />
        </mxCell>
        <mxCell id="Vnj8ahKII1eqrUuesVkK-53" value="" style="ellipse;whiteSpace=wrap;html=1;aspect=fixed;fillColor=light-dark(#77FF28,var(--ge-dark-color, #121212));" vertex="1" parent="1">
          <mxGeometry x="420" y="915" width="10" height="10" as="geometry" />
        </mxCell>
        <mxCell id="Vnj8ahKII1eqrUuesVkK-54" value="" style="ellipse;whiteSpace=wrap;html=1;aspect=fixed;fillColor=light-dark(#77FF28,#000000);" vertex="1" parent="1">
          <mxGeometry x="420" y="955" width="10" height="10" as="geometry" />
        </mxCell>
        <mxCell id="Vnj8ahKII1eqrUuesVkK-55" value="" style="ellipse;whiteSpace=wrap;html=1;aspect=fixed;fillColor=light-dark(#77FF28,#000000);" vertex="1" parent="1">
          <mxGeometry x="420" y="1000" width="10" height="10" as="geometry" />
        </mxCell>
        <mxCell id="Vnj8ahKII1eqrUuesVkK-56" value="" style="ellipse;whiteSpace=wrap;html=1;aspect=fixed;fillColor=light-dark(#77FF28,#000000);" vertex="1" parent="1">
          <mxGeometry x="420" y="1040" width="10" height="10" as="geometry" />
        </mxCell>
        <mxCell id="Vnj8ahKII1eqrUuesVkK-57" value="Usuario 0: Hola a todos los usuarios" style="text;html=1;align=center;verticalAlign=middle;whiteSpace=wrap;rounded=0;" vertex="1" parent="1">
          <mxGeometry x="70" y="930" width="200" height="10" as="geometry" />
        </mxCell>
        <mxCell id="Vnj8ahKII1eqrUuesVkK-58" value="" style="endArrow=classic;html=1;rounded=0;" edge="1" parent="1" source="Vnj8ahKII1eqrUuesVkK-14">
          <mxGeometry width="50" height="50" relative="1" as="geometry">
            <mxPoint x="310" y="800" as="sourcePoint" />
            <mxPoint x="370" y="840" as="targetPoint" />
          </mxGeometry>
        </mxCell>
        <mxCell id="Vnj8ahKII1eqrUuesVkK-59" value="" style="endArrow=classic;html=1;rounded=0;exitX=1;exitY=0.5;exitDx=0;exitDy=0;" edge="1" parent="1" source="Vnj8ahKII1eqrUuesVkK-15">
          <mxGeometry width="50" height="50" relative="1" as="geometry">
            <mxPoint x="470" y="645" as="sourcePoint" />
            <mxPoint x="580" y="640" as="targetPoint" />
          </mxGeometry>
        </mxCell>
        <mxCell id="Vnj8ahKII1eqrUuesVkK-60" value="" style="rounded=0;whiteSpace=wrap;html=1;" vertex="1" parent="1">
          <mxGeometry x="610" y="340" width="420" height="340" as="geometry" />
        </mxCell>
        <mxCell id="Vnj8ahKII1eqrUuesVkK-61" value="" style="rounded=0;whiteSpace=wrap;html=1;" vertex="1" parent="1">
          <mxGeometry x="930" y="380" width="80" height="240" as="geometry" />
        </mxCell>
        <mxCell id="Vnj8ahKII1eqrUuesVkK-63" value="" style="rounded=0;whiteSpace=wrap;html=1;" vertex="1" parent="1">
          <mxGeometry x="630" y="640" width="270" height="20" as="geometry" />
        </mxCell>
        <mxCell id="Vnj8ahKII1eqrUuesVkK-64" value="Enviar" style="rounded=1;whiteSpace=wrap;html=1;" vertex="1" parent="1">
          <mxGeometry x="920" y="640" width="40" height="20" as="geometry" />
        </mxCell>
        <mxCell id="Vnj8ahKII1eqrUuesVkK-65" value="Zumbido" style="rounded=1;whiteSpace=wrap;html=1;" vertex="1" parent="1">
          <mxGeometry x="970" y="640" width="50" height="20" as="geometry" />
        </mxCell>
        <mxCell id="Vnj8ahKII1eqrUuesVkK-66" value="" style="shape=table;startSize=0;container=1;collapsible=0;childLayout=tableLayout;fontSize=11;fillColor=none;strokeColor=none;" vertex="1" parent="1">
          <mxGeometry x="930" y="380" width="80" height="170" as="geometry" />
        </mxCell>
        <mxCell id="Vnj8ahKII1eqrUuesVkK-67" value="" style="shape=tableRow;horizontal=0;startSize=0;swimlaneHead=0;swimlaneBody=0;strokeColor=inherit;top=0;left=0;bottom=0;right=0;collapsible=0;dropTarget=0;fillColor=none;points=[[0,0.5],[1,0.5]];portConstraint=eastwest;fontSize=16;" vertex="1" parent="Vnj8ahKII1eqrUuesVkK-66">
          <mxGeometry width="80" height="43" as="geometry" />
        </mxCell>
        <mxCell id="Vnj8ahKII1eqrUuesVkK-68" value="Usuario 1" style="shape=partialRectangle;html=1;whiteSpace=wrap;connectable=0;strokeColor=inherit;overflow=hidden;fillColor=none;top=0;left=0;bottom=0;right=0;pointerEvents=1;fontSize=12;align=left;spacingLeft=5;" vertex="1" parent="Vnj8ahKII1eqrUuesVkK-67">
          <mxGeometry width="80" height="43" as="geometry">
            <mxRectangle width="80" height="43" as="alternateBounds" />
          </mxGeometry>
        </mxCell>
        <mxCell id="Vnj8ahKII1eqrUuesVkK-69" value="" style="shape=tableRow;horizontal=0;startSize=0;swimlaneHead=0;swimlaneBody=0;strokeColor=inherit;top=0;left=0;bottom=0;right=0;collapsible=0;dropTarget=0;fillColor=none;points=[[0,0.5],[1,0.5]];portConstraint=eastwest;fontSize=16;" vertex="1" parent="Vnj8ahKII1eqrUuesVkK-66">
          <mxGeometry y="43" width="80" height="42" as="geometry" />
        </mxCell>
        <mxCell id="Vnj8ahKII1eqrUuesVkK-70" value="Usuario 2" style="shape=partialRectangle;html=1;whiteSpace=wrap;connectable=0;strokeColor=inherit;overflow=hidden;fillColor=none;top=0;left=0;bottom=0;right=0;pointerEvents=1;fontSize=12;align=left;spacingLeft=5;" vertex="1" parent="Vnj8ahKII1eqrUuesVkK-69">
          <mxGeometry width="80" height="42" as="geometry">
            <mxRectangle width="80" height="42" as="alternateBounds" />
          </mxGeometry>
        </mxCell>
        <mxCell id="Vnj8ahKII1eqrUuesVkK-71" value="" style="shape=tableRow;horizontal=0;startSize=0;swimlaneHead=0;swimlaneBody=0;strokeColor=inherit;top=0;left=0;bottom=0;right=0;collapsible=0;dropTarget=0;fillColor=none;points=[[0,0.5],[1,0.5]];portConstraint=eastwest;fontSize=16;" vertex="1" parent="Vnj8ahKII1eqrUuesVkK-66">
          <mxGeometry y="85" width="80" height="43" as="geometry" />
        </mxCell>
        <mxCell id="Vnj8ahKII1eqrUuesVkK-72" value="Usuario 3" style="shape=partialRectangle;html=1;whiteSpace=wrap;connectable=0;strokeColor=inherit;overflow=hidden;fillColor=none;top=0;left=0;bottom=0;right=0;pointerEvents=1;fontSize=12;align=left;spacingLeft=5;" vertex="1" parent="Vnj8ahKII1eqrUuesVkK-71">
          <mxGeometry width="80" height="43" as="geometry">
            <mxRectangle width="80" height="43" as="alternateBounds" />
          </mxGeometry>
        </mxCell>
        <mxCell id="Vnj8ahKII1eqrUuesVkK-73" style="shape=tableRow;horizontal=0;startSize=0;swimlaneHead=0;swimlaneBody=0;strokeColor=inherit;top=0;left=0;bottom=0;right=0;collapsible=0;dropTarget=0;fillColor=none;points=[[0,0.5],[1,0.5]];portConstraint=eastwest;fontSize=16;" vertex="1" parent="Vnj8ahKII1eqrUuesVkK-66">
          <mxGeometry y="128" width="80" height="42" as="geometry" />
        </mxCell>
        <mxCell id="Vnj8ahKII1eqrUuesVkK-74" value="Usuario 4" style="shape=partialRectangle;html=1;whiteSpace=wrap;connectable=0;strokeColor=inherit;overflow=hidden;fillColor=none;top=0;left=0;bottom=0;right=0;pointerEvents=1;fontSize=12;align=left;spacingLeft=5;" vertex="1" parent="Vnj8ahKII1eqrUuesVkK-73">
          <mxGeometry width="80" height="42" as="geometry">
            <mxRectangle width="80" height="42" as="alternateBounds" />
          </mxGeometry>
        </mxCell>
        <mxCell id="Vnj8ahKII1eqrUuesVkK-76" value="Hola a todos los usuarios" style="text;html=1;align=center;verticalAlign=middle;whiteSpace=wrap;rounded=0;" vertex="1" parent="1">
          <mxGeometry x="620" y="645" width="170" height="10" as="geometry" />
        </mxCell>
        <mxCell id="Vnj8ahKII1eqrUuesVkK-81" value="" style="verticalLabelPosition=bottom;verticalAlign=top;html=1;shape=mxgraph.basic.layered_rect;dx=10;outlineConnect=0;whiteSpace=wrap;" vertex="1" parent="1">
          <mxGeometry x="620" y="380" width="300" height="230" as="geometry" />
        </mxCell>
        <mxCell id="Vnj8ahKII1eqrUuesVkK-82" value="" style="verticalLabelPosition=bottom;verticalAlign=top;html=1;shape=mxgraph.basic.layered_rect;dx=10;outlineConnect=0;whiteSpace=wrap;rotation=-180;" vertex="1" parent="1">
          <mxGeometry x="610" y="375" width="300" height="230" as="geometry" />
        </mxCell>
        <mxCell id="Vnj8ahKII1eqrUuesVkK-75" value="Bienvenido, Usuario 0!" style="text;html=1;align=center;verticalAlign=middle;whiteSpace=wrap;rounded=0;" vertex="1" parent="1">
          <mxGeometry x="657" y="390" width="170" height="20" as="geometry" />
        </mxCell>
        <mxCell id="Vnj8ahKII1eqrUuesVkK-83" value="Bienvenido, Usuario 0!" style="text;html=1;align=center;verticalAlign=middle;whiteSpace=wrap;rounded=0;" vertex="1" parent="1">
          <mxGeometry x="600" y="390" width="170" height="20" as="geometry" />
        </mxCell>
        <mxCell id="Vnj8ahKII1eqrUuesVkK-84" value="Bienvenido, Usuario 0!" style="text;html=1;align=center;verticalAlign=middle;whiteSpace=wrap;rounded=0;" vertex="1" parent="1">
          <mxGeometry x="740" y="390" width="170" height="20" as="geometry" />
        </mxCell>
        <mxCell id="Vnj8ahKII1eqrUuesVkK-87" value="" style="ellipse;whiteSpace=wrap;html=1;aspect=fixed;fillColor=light-dark(#77FF28,var(--ge-dark-color, #121212));" vertex="1" parent="1">
          <mxGeometry x="990" y="395" width="10" height="10" as="geometry" />
        </mxCell>
        <mxCell id="Vnj8ahKII1eqrUuesVkK-88" value="" style="ellipse;whiteSpace=wrap;html=1;aspect=fixed;fillColor=light-dark(#77FF28,#000000);" vertex="1" parent="1">
          <mxGeometry x="990" y="435" width="10" height="10" as="geometry" />
        </mxCell>
        <mxCell id="Vnj8ahKII1eqrUuesVkK-89" value="" style="ellipse;whiteSpace=wrap;html=1;aspect=fixed;fillColor=light-dark(#77FF28,#000000);" vertex="1" parent="1">
          <mxGeometry x="990" y="480" width="10" height="10" as="geometry" />
        </mxCell>
        <mxCell id="Vnj8ahKII1eqrUuesVkK-90" value="" style="ellipse;whiteSpace=wrap;html=1;aspect=fixed;fillColor=light-dark(#77FF28,#000000);" vertex="1" parent="1">
          <mxGeometry x="990" y="520" width="10" height="10" as="geometry" />
        </mxCell>
        <mxCell id="Vnj8ahKII1eqrUuesVkK-93" value="" style="rounded=0;whiteSpace=wrap;html=1;" vertex="1" parent="1">
          <mxGeometry x="40" y="-200" width="330" height="180" as="geometry" />
        </mxCell>
        <mxCell id="Vnj8ahKII1eqrUuesVkK-94" value="" style="ellipse;shape=doubleEllipse;whiteSpace=wrap;html=1;aspect=fixed;" vertex="1" parent="1">
          <mxGeometry x="260" y="-180" width="80" height="80" as="geometry" />
        </mxCell>
        <mxCell id="Vnj8ahKII1eqrUuesVkK-95" value="&lt;font style=&quot;font-size: 12px;&quot;&gt;Introduce tu nombre de usuario&lt;/font&gt;" style="text;strokeColor=none;fillColor=none;html=1;fontSize=24;fontStyle=1;verticalAlign=middle;align=center;" vertex="1" parent="1">
          <mxGeometry x="10" y="-160" width="270" as="geometry" />
        </mxCell>
        <mxCell id="Vnj8ahKII1eqrUuesVkK-96" value="Nombre:" style="text;html=1;align=center;verticalAlign=middle;whiteSpace=wrap;rounded=0;" vertex="1" parent="1">
          <mxGeometry x="70" y="-90" width="60" height="30" as="geometry" />
        </mxCell>
        <mxCell id="Vnj8ahKII1eqrUuesVkK-97" value="" style="rounded=0;whiteSpace=wrap;html=1;" vertex="1" parent="1">
          <mxGeometry x="140" y="-90" width="160" height="30" as="geometry" />
        </mxCell>
        <mxCell id="Vnj8ahKII1eqrUuesVkK-98" value="Cancelar" style="rounded=0;whiteSpace=wrap;html=1;" vertex="1" parent="1">
          <mxGeometry x="260" y="-50" width="70" height="20" as="geometry" />
        </mxCell>
        <mxCell id="Vnj8ahKII1eqrUuesVkK-99" value="Aceptar" style="rounded=0;whiteSpace=wrap;html=1;" vertex="1" parent="1">
          <mxGeometry x="185" y="-50" width="70" height="20" as="geometry" />
        </mxCell>
        <mxCell id="Vnj8ahKII1eqrUuesVkK-100" value="" style="endArrow=classic;html=1;rounded=0;exitX=0.5;exitY=1;exitDx=0;exitDy=0;" edge="1" parent="1" source="Vnj8ahKII1eqrUuesVkK-99">
          <mxGeometry width="50" height="50" relative="1" as="geometry">
            <mxPoint x="330" y="40" as="sourcePoint" />
            <mxPoint x="520" y="10" as="targetPoint" />
            <Array as="points">
              <mxPoint x="220" y="10" />
            </Array>
          </mxGeometry>
        </mxCell>
        <mxCell id="Vnj8ahKII1eqrUuesVkK-101" value="" style="rounded=0;whiteSpace=wrap;html=1;" vertex="1" parent="1">
          <mxGeometry x="555" y="-90" width="330" height="180" as="geometry" />
        </mxCell>
        <mxCell id="Vnj8ahKII1eqrUuesVkK-102" value="" style="ellipse;shape=doubleEllipse;whiteSpace=wrap;html=1;aspect=fixed;" vertex="1" parent="1">
          <mxGeometry x="775" y="-70" width="80" height="80" as="geometry" />
        </mxCell>
        <mxCell id="Vnj8ahKII1eqrUuesVkK-103" value="&lt;font style=&quot;font-size: 12px;&quot;&gt;Introduce tu nombre de usuario&lt;/font&gt;" style="text;strokeColor=none;fillColor=none;html=1;fontSize=24;fontStyle=1;verticalAlign=middle;align=center;" vertex="1" parent="1">
          <mxGeometry x="525" y="-50" width="270" as="geometry" />
        </mxCell>
        <mxCell id="Vnj8ahKII1eqrUuesVkK-104" value="Nombre:" style="text;html=1;align=center;verticalAlign=middle;whiteSpace=wrap;rounded=0;" vertex="1" parent="1">
          <mxGeometry x="585" y="20" width="60" height="30" as="geometry" />
        </mxCell>
        <mxCell id="Vnj8ahKII1eqrUuesVkK-105" value="" style="rounded=0;whiteSpace=wrap;html=1;" vertex="1" parent="1">
          <mxGeometry x="655" y="20" width="160" height="30" as="geometry" />
        </mxCell>
        <mxCell id="Vnj8ahKII1eqrUuesVkK-106" value="Cancelar" style="rounded=0;whiteSpace=wrap;html=1;" vertex="1" parent="1">
          <mxGeometry x="775" y="60" width="70" height="20" as="geometry" />
        </mxCell>
        <mxCell id="Vnj8ahKII1eqrUuesVkK-107" value="Aceptar" style="rounded=0;whiteSpace=wrap;html=1;" vertex="1" parent="1">
          <mxGeometry x="700" y="60" width="70" height="20" as="geometry" />
        </mxCell>
        <mxCell id="Vnj8ahKII1eqrUuesVkK-108" value="Debes introducir un nombre de usuario" style="text;html=1;align=center;verticalAlign=middle;whiteSpace=wrap;rounded=0;" vertex="1" parent="1">
          <mxGeometry x="570" y="-20" width="190" height="20" as="geometry" />
        </mxCell>
        <mxCell id="Vnj8ahKII1eqrUuesVkK-110" value="" style="endArrow=classic;html=1;rounded=0;exitX=1;exitY=0.5;exitDx=0;exitDy=0;" edge="1" parent="1" source="Vnj8ahKII1eqrUuesVkK-98" target="Vnj8ahKII1eqrUuesVkK-111">
          <mxGeometry width="50" height="50" relative="1" as="geometry">
            <mxPoint x="440" y="-210" as="sourcePoint" />
            <mxPoint x="440" y="-280" as="targetPoint" />
            <Array as="points">
              <mxPoint x="440" y="-40" />
            </Array>
          </mxGeometry>
        </mxCell>
        <mxCell id="Vnj8ahKII1eqrUuesVkK-111" value="Se cierra la aplicaciÃ³n" style="text;html=1;align=center;verticalAlign=middle;whiteSpace=wrap;rounded=0;" vertex="1" parent="1">
          <mxGeometry x="413" y="-330" width="60" height="30" as="geometry" />
        </mxCell>
      </root>
    </mxGraphModel>
  </diagram>
</mxfile>
